<?xml version="1.0" standalone="no"?>
<!DOCTYPE svg PUBLIC "-//W3C//DTD SVG 20010904//EN"
 "http://www.w3.org/TR/2001/REC-SVG-20010904/DTD/svg10.dtd">
<svg version="1.0" xmlns="http://www.w3.org/2000/svg"
 width="512.000000pt" height="512.000000pt" viewBox="0 0 512.000000 512.000000"
 preserveAspectRatio="xMidYMid meet">

<g transform="translate(0.000000,512.000000) scale(0.100000,-0.100000)"
fill="#000000" stroke="none">
<path d="M2321 5110 c-497 -48 -990 -251 -1376 -565 -114 -92 -294 -274 -384
-387 -229 -287 -417 -675 -495 -1023 -49 -218 -60 -325 -60 -575 0 -250 11
-357 60 -575 79 -355 272 -749 509 -1040 92 -114 274 -294 387 -384 287 -229
675 -417 1023 -495 218 -49 325 -60 575 -60 250 0 357 11 575 60 261 58 603
204 828 353 389 259 688 599 893 1016 125 255 196 484 241 775 24 161 24 539
0 700 -45 291 -116 520 -241 775 -134 272 -283 480 -498 692 -211 209 -404
346 -673 478 -252 124 -486 197 -765 240 -126 19 -468 27 -599 15z m401 -1489
c287 -478 500 -898 597 -1174 48 -136 63 -213 62 -317 -1 -364 -272 -689 -636
-765 -270 -56 -561 39 -745 243 -33 37 -72 85 -85 108 l-24 41 79 -5 c169 -10
308 44 431 167 169 169 227 401 159 638 -40 144 -145 395 -264 631 l-46 92 81
143 c45 78 120 204 167 281 84 137 85 138 102 116 9 -12 64 -102 122 -199z
m-649 -313 c100 -162 274 -541 337 -733 42 -127 50 -244 25 -331 -41 -142
-133 -258 -254 -317 -62 -30 -72 -32 -176 -32 -104 0 -114 2 -177 33 -173 84
-278 246 -279 428 -1 158 136 462 423 942 27 45 51 82 53 82 1 0 23 -33 48
-72z"/>
</g>
</svg>
